<?xml version="1.0" encoding="UTF-8"?>
<svg xmlns="http://www.w3.org/2000/svg" xmlns:xlink="http://www.w3.org/1999/xlink" version="1.1" width="2129px" height="2129px" style="shape-rendering:geometricPrecision; text-rendering:geometricPrecision; image-rendering:optimizeQuality; fill-rule:evenodd; clip-rule:evenodd">
  <g>
    <path style="opacity:0.999" fill="#000000" d="M -0.5,-0.5 C 2.5,-0.5 5.5,-0.5 8.5,-0.5C 313.254,40.2193 612.254,107.053 905.5,200C 1068.06,251.629 1225.4,315.963 1377.5,393C 1489.82,450.288 1594.82,518.288 1692.5,597C 1818.1,702.875 1921.94,826.375 2004,967.5C 2076.26,1093.45 2117.76,1228.79 2128.5,1373.5C 2128.5,1403.83 2128.5,1434.17 2128.5,1464.5C 2120.74,1595.29 2082.9,1716.62 2015,1828.5C 1959.54,1916.63 1886.04,1985.46 1794.5,2035C 1691.33,2090.45 1581.33,2121.61 1464.5,2128.5C 1434.17,2128.5 1403.83,2128.5 1373.5,2128.5C 1228.79,2117.76 1093.45,2076.26 967.5,2004C 826.375,1921.94 702.875,1818.1 597,1692.5C 518.288,1594.82 450.288,1489.82 393,1377.5C 315.963,1225.4 251.629,1068.06 200,905.5C 107.053,612.254 40.2193,313.254 -0.5,8.5C -0.5,5.5 -0.5,2.5 -0.5,-0.5 Z"></path>
  </g>
</svg>
