<?xml version="1.0" encoding="UTF-8"?>
<svg xmlns="http://www.w3.org/2000/svg" xmlns:xlink="http://www.w3.org/1999/xlink" version="1.1" width="2343px" height="2343px" style="shape-rendering:geometricPrecision; text-rendering:geometricPrecision; image-rendering:optimizeQuality; fill-rule:evenodd; clip-rule:evenodd">
  <g>
    <path style="opacity:0.999" fill="#000000" d="M 80.5,-0.5 C 94.8333,-0.5 109.167,-0.5 123.5,-0.5C 163.892,4.41491 203.559,13.2482 242.5,26C 308.425,47.7512 372.759,73.4179 435.5,103C 599.696,181.574 758.363,269.074 911.5,365.5C 911.833,365 912.167,364.5 912.5,364C 895.064,311.859 877.731,259.693 860.5,207.5C 862.766,206.794 865.099,206.961 867.5,208C 945.294,230.265 1019.63,260.932 1090.5,300C 1200.38,361.763 1302.71,434.096 1397.5,517C 1476.67,585.5 1550.5,659.333 1619,738.5C 1602.91,681.323 1586.41,624.157 1569.5,567C 1569.67,566.5 1569.83,566 1570,565.5C 1645.28,611.379 1713.61,666.379 1775,730.5C 1864.39,826.62 1941.05,931.954 2005,1046.5C 2042.94,1113.72 2076.61,1183.05 2106,1254.5C 2114.39,1202.48 2122.89,1150.48 2131.5,1098.5C 2230.84,1223.88 2296.34,1365.54 2328,1523.5C 2335.59,1563.99 2340.42,1604.66 2342.5,1645.5C 2342.5,1664.17 2342.5,1682.83 2342.5,1701.5C 2336.15,1855.81 2280.65,1989.14 2176,2101.5C 2150.5,2125.67 2125.67,2150.5 2101.5,2176C 1989.14,2280.65 1855.81,2336.15 1701.5,2342.5C 1682.83,2342.5 1664.17,2342.5 1645.5,2342.5C 1506.26,2334.26 1374.93,2297.43 1251.5,2232C 1197.04,2203.46 1146.04,2169.96 1098.5,2131.5C 1150.48,2122.89 1202.48,2114.39 1254.5,2106C 1087.95,2037.19 935.288,1946.52 796.5,1834C 736.596,1784.1 682.096,1728.93 633,1668.5C 608.547,1637.04 586.047,1604.21 565.5,1570C 566,1569.83 566.5,1569.67 567,1569.5C 624.157,1586.41 681.323,1602.91 738.5,1619C 610.105,1507.72 496.605,1383.55 398,1246.5C 339.76,1165.74 290.426,1079.4 250,987.5C 232.537,946.731 218.037,904.898 206.5,862C 206.833,861.5 207.167,861 207.5,860.5C 259.993,878.774 312.66,895.774 365.5,911.5C 269.074,758.363 181.574,599.696 103,435.5C 73.4179,372.759 47.7512,308.425 26,242.5C 13.2482,203.559 4.41491,163.892 -0.5,123.5C -0.5,109.167 -0.5,94.8333 -0.5,80.5C 1.48733,60.7105 8.32066,42.7105 20,26.5C 27.6974,18.7322 36.5307,12.5656 46.5,8C 57.6556,3.87771 68.989,1.04437 80.5,-0.5 Z"></path>
  </g>
</svg>
