<?xml version="1.0" encoding="UTF-8"?>
<svg xmlns="http://www.w3.org/2000/svg" xmlns:xlink="http://www.w3.org/1999/xlink" version="1.1" width="2074px" height="2074px" style="shape-rendering:geometricPrecision; text-rendering:geometricPrecision; image-rendering:optimizeQuality; fill-rule:evenodd; clip-rule:evenodd">
  <g>
    <path style="opacity:0.999" fill="#000000" d="M 0.5,-0.5 C 1.83333,-0.5 3.16667,-0.5 4.5,-0.5C 5.83333,0.833333 7.16667,0.833333 8.5,-0.5C 19.5,-0.5 30.5,-0.5 41.5,-0.5C 118.104,6.4798 192.771,22.9798 265.5,49C 359.026,82.4021 449.692,122.402 537.5,169C 661.351,235.729 780.684,309.229 895.5,389.5C 867.723,332.353 846.89,272.353 833,209.5C 828.75,190.664 825.583,171.664 823.5,152.5C 935.338,177.386 1040.34,219.219 1138.5,278C 1268.37,357.482 1382.87,455.649 1482,572.5C 1522.5,620.516 1559.84,670.849 1594,723.5C 1607.91,668.601 1623.74,614.267 1641.5,560.5C 1642,559.479 1642.67,559.312 1643.5,560C 1782.84,697.438 1891.34,856.271 1969,1036.5C 2032.78,1189.92 2067.62,1349.59 2073.5,1515.5C 2073.5,1542.17 2073.5,1568.83 2073.5,1595.5C 2070.66,1686.55 2057.49,1776.21 2034,1864.5C 2026.5,1891.33 2016.84,1917.33 2005,1942.5C 1982.57,1980.92 1950.07,2006.75 1907.5,2020C 1832.48,2045.34 1755.48,2061.34 1676.5,2068C 1649.37,2070.29 1622.37,2072.12 1595.5,2073.5C 1568.83,2073.5 1542.17,2073.5 1515.5,2073.5C 1236.75,2061.76 984.42,1974.92 758.5,1813C 687.921,1762.12 621.755,1705.62 560,1643.5C 559.312,1642.67 559.479,1642 560.5,1641.5C 614.267,1623.74 668.601,1607.91 723.5,1594C 545.818,1478.99 400.318,1332.15 287,1153.5C 233.209,1065.57 192.209,971.904 164,872.5C 159.375,856.333 155.541,840 152.5,823.5C 235.558,834.304 314.391,858.637 389,896.5C 333.079,814.824 279.746,731.158 229,645.5C 167.444,541.385 114.11,433.052 69,320.5C 42.9335,254.299 22.9335,186.299 9,116.5C 4.58409,91.5041 1.41743,66.5041 -0.5,41.5C -0.5,30.5 -0.5,19.5 -0.5,8.5C 0.833333,7.16667 0.833333,5.83333 -0.5,4.5C -0.5,3.16667 -0.5,1.83333 -0.5,0.5C 0.166667,0.5 0.5,0.166667 0.5,-0.5 Z"></path>
  </g>
</svg>
