<?xml version="1.0" encoding="UTF-8"?>
<svg xmlns="http://www.w3.org/2000/svg" xmlns:xlink="http://www.w3.org/1999/xlink" version="1.1" width="2400px" height="2400px" style="shape-rendering:geometricPrecision; text-rendering:geometricPrecision; image-rendering:optimizeQuality; fill-rule:evenodd; clip-rule:evenodd">
  <g>
    <path style="opacity:0.999" fill="#000000" d="M 721.5,-0.5 C 729.167,-0.5 736.833,-0.5 744.5,-0.5C 769.438,6.46912 792.105,17.9691 812.5,34C 844.435,58.9236 874.268,86.4236 902,116.5C 956.358,176.842 1007.69,239.508 1056,304.5C 1075.33,331.167 1094.67,357.833 1114,384.5C 1111.17,349.682 1112.51,315.015 1118,280.5C 1131.54,219.088 1165.04,205.255 1218.5,239C 1243.74,256.555 1266.9,276.722 1288,299.5C 1325.6,341.092 1360.94,384.425 1394,429.5C 1458.15,519.101 1518.81,611.101 1576,705.5C 1583.18,672.967 1594.51,641.967 1610,612.5C 1643,556.977 1684.17,550.144 1733.5,592C 1761.15,619.635 1784.98,650.135 1805,683.5C 1842.51,748.19 1875.51,815.19 1904,884.5C 1927.37,940.951 1949.37,997.951 1970,1055.5C 1970.67,1056.83 1971.33,1056.83 1972,1055.5C 1986.08,1031.07 2003.58,1009.23 2024.5,990C 2072.09,951.801 2110.93,959.301 2141,1012.5C 2160.25,1051.59 2173.92,1092.59 2182,1135.5C 2193.88,1196.68 2202.22,1258.35 2207,1320.5C 2210.96,1371.11 2213.96,1421.78 2216,1472.5C 2244.56,1441.59 2276.39,1414.76 2311.5,1392C 2322.6,1385.62 2334.26,1380.62 2346.5,1377C 2366.64,1371.48 2381.81,1377.65 2392,1395.5C 2395.46,1404.02 2397.96,1412.69 2399.5,1421.5C 2399.5,1438.17 2399.5,1454.83 2399.5,1471.5C 2390.16,1540.55 2374.32,1608.21 2352,1674.5C 2334.78,1714.94 2314.45,1753.6 2291,1790.5C 2276.39,1812.77 2261.39,1834.77 2246,1856.5C 2215,1896.17 2184,1935.83 2153,1975.5C 2092.32,2048.51 2024.82,2114.35 1950.5,2173C 1919.45,2197.72 1888.12,2222.05 1856.5,2246C 1808.17,2281.85 1756.84,2313.19 1702.5,2340C 1687.84,2346.83 1672.84,2352.83 1657.5,2358C 1596.55,2377.24 1534.55,2391.07 1471.5,2399.5C 1454.83,2399.5 1438.17,2399.5 1421.5,2399.5C 1379.22,2393.95 1366.05,2371.28 1382,2331.5C 1388.47,2317.39 1396.13,2304.06 1405,2291.5C 1425.33,2264.49 1447.83,2239.33 1472.5,2216C 1376.02,2213.12 1280.02,2204.78 1184.5,2191C 1134.81,2183.83 1086.48,2171.49 1039.5,2154C 1016.73,2145.53 996.892,2132.7 980,2115.5C 961.865,2092.01 960.865,2067.68 977,2042.5C 988.007,2026.15 1001.17,2011.65 1016.5,1999C 1029.28,1988.89 1042.61,1979.55 1056.5,1971C 967.673,1939.06 880.34,1903.39 794.5,1864C 742.403,1839.8 692.736,1811.8 645.5,1780C 618.75,1761.92 595.917,1739.75 577,1713.5C 555.859,1675.56 563.026,1644.06 598.5,1619C 621.37,1603.9 646.037,1592.57 672.5,1585C 683.555,1582.15 694.555,1579.15 705.5,1576C 591.401,1507.54 481.401,1433.21 375.5,1353C 349.284,1332.46 323.95,1310.79 299.5,1288C 276.722,1266.9 256.555,1243.74 239,1218.5C 205.255,1165.04 219.088,1131.54 280.5,1118C 315.015,1112.51 349.682,1111.17 384.5,1114C 311.005,1062.24 239.672,1007.57 170.5,950C 136.126,920.298 102.96,889.132 71,856.5C 49.3301,833.476 30.3301,808.476 14,781.5C 7.65829,769.621 2.82495,757.288 -0.5,744.5C -0.5,736.833 -0.5,729.167 -0.5,721.5C 3.87243,707.95 12.2058,697.45 24.5,690C 42.1347,681.258 60.8013,676.258 80.5,675C 90.1561,674.292 99.8227,673.792 109.5,673.5C 121.527,674.061 133.527,674.561 145.5,675C 102.82,584.45 68.9865,490.617 44,393.5C 31.6762,343.909 24.8429,293.576 23.5,242.5C 23.3121,208.313 28.4788,174.98 39,142.5C 62.0885,81.1619 105.922,43.9952 170.5,31C 212.612,22.9768 254.946,21.6434 297.5,27C 358.111,34.6529 417.445,47.9862 475.5,67C 543.599,89.2523 610.099,115.419 675,145.5C 674.561,133.527 674.061,121.527 673.5,109.5C 673.304,87.0932 676.138,65.0932 682,43.5C 686.284,27.3992 695.117,14.5658 708.5,5C 712.741,2.6512 717.075,0.817868 721.5,-0.5 Z"></path>
  </g>
</svg>
