<?xml version="1.0" encoding="UTF-8"?>
<svg xmlns="http://www.w3.org/2000/svg" xmlns:xlink="http://www.w3.org/1999/xlink" version="1.1" width="2197px" height="2197px" style="shape-rendering:geometricPrecision; text-rendering:geometricPrecision; image-rendering:optimizeQuality; fill-rule:evenodd; clip-rule:evenodd">
  <g>
    <path style="opacity:0.998" fill="#000000" d="M -0.5,-0.5 C 2.16667,-0.5 4.83333,-0.5 7.5,-0.5C 84.9486,15.1523 158.615,41.6523 228.5,79C 311.256,123.194 387.923,176.027 458.5,237.5C 433.657,197.24 408.157,156.906 382,116.5C 381.333,115.5 381.333,114.5 382,113.5C 531.629,141.089 668.796,197.923 793.5,284C 862.92,332.214 926.754,387.381 985,449.5C 995.041,460.539 1004.71,471.873 1014,483.5C 997.198,431.427 980.198,379.427 963,327.5C 1173.97,386.6 1343.63,504.267 1472,680.5C 1485.42,700.329 1498.08,720.663 1510,741.5C 1494.27,686.969 1478.1,632.469 1461.5,578C 1461.85,576.743 1462.52,576.409 1463.5,577C 1646.18,687.014 1780.68,839.514 1867,1034.5C 1877.92,1059.91 1887.25,1085.91 1895,1112.5C 1902.39,1061.11 1910.06,1009.78 1918,958.5C 1957.12,1007.03 1989.46,1060.03 2015,1117.5C 2062.8,1229.37 2091.47,1346.04 2101,1467.5C 2103.1,1493.13 2104.43,1518.79 2105,1544.5C 2122.95,1495.98 2141.28,1447.64 2160,1399.5C 2180.15,1461.09 2192.32,1524.09 2196.5,1588.5C 2196.5,1613.5 2196.5,1638.5 2196.5,1663.5C 2188.62,1783.65 2150.79,1893.31 2083,1992.5C 2055.33,2032.18 2021.16,2065.01 1980.5,2091C 1884.13,2153.85 1778.46,2189.01 1663.5,2196.5C 1638.5,2196.5 1613.5,2196.5 1588.5,2196.5C 1524.09,2192.32 1461.09,2180.15 1399.5,2160C 1447.64,2141.28 1495.98,2122.95 1544.5,2105C 1420.45,2102.66 1299.78,2081.33 1182.5,2041C 1117.93,2018.05 1057.26,1987.71 1000.5,1950C 985.931,1940.1 971.931,1929.43 958.5,1918C 1009.78,1910.06 1061.11,1902.39 1112.5,1895C 1015.72,1864.11 926.717,1818.78 845.5,1759C 735.862,1678.37 646.362,1579.87 577,1463.5C 576.409,1462.52 576.743,1461.85 578,1461.5C 632.469,1478.1 686.969,1494.27 741.5,1510C 648.753,1456.29 568.586,1387.46 501,1303.5C 420.16,1202.33 362.326,1088.83 327.5,963C 379.427,980.198 431.427,997.198 483.5,1014C 339.585,891.406 233.085,741.906 164,565.5C 141.626,505.833 124.792,444.667 113.5,382C 114.5,381.333 115.5,381.333 116.5,382C 156.906,408.157 197.24,433.657 237.5,458.5C 159.832,369.918 96.6655,271.585 48,163.5C 26.0574,113.179 9.89071,61.1793 -0.5,7.5C -0.5,4.83333 -0.5,2.16667 -0.5,-0.5 Z"></path>
  </g>
</svg>
