<?xml version="1.0" encoding="UTF-8"?>
<svg xmlns="http://www.w3.org/2000/svg" xmlns:xlink="http://www.w3.org/1999/xlink" version="1.1" width="2490px" height="2490px" style="shape-rendering:geometricPrecision; text-rendering:geometricPrecision; image-rendering:optimizeQuality; fill-rule:evenodd; clip-rule:evenodd">
  <g>
    <path style="opacity:0.999" fill="#000000" d="M -0.5,-0.5 C 1.16667,-0.5 2.83333,-0.5 4.5,-0.5C 143.277,34.5925 278.277,80.7592 409.5,138C 492.871,174.671 572.204,218.004 647.5,268C 669.961,283.65 691.794,300.15 713,317.5C 689.841,272.188 666.341,226.854 642.5,181.5C 820.388,179.754 984.721,225.588 1135.5,319C 1212.66,367.813 1279.49,428.313 1336,500.5C 1325.41,440.222 1315.08,379.889 1305,319.5C 1396.79,329.405 1484.62,353.572 1568.5,392C 1702.34,455.173 1803.51,552.34 1872,683.5C 1876.88,693.267 1881.22,703.267 1885,713.5C 1876.87,648.766 1868.04,584.099 1858.5,519.5C 1858.83,519.167 1859.17,518.833 1859.5,518.5C 2051.64,611.49 2181.14,759.49 2248,962.5C 2260,1000.83 2269,1039.83 2275,1079.5C 2294.38,1015.63 2314.21,951.964 2334.5,888.5C 2384.38,956.585 2421.88,1031.25 2447,1112.5C 2471.55,1191.14 2485.72,1271.47 2489.5,1353.5C 2489.5,1379.5 2489.5,1405.5 2489.5,1431.5C 2480.01,1613.13 2424.51,1779.13 2323,1929.5C 2286.17,1983.35 2245.17,2034.02 2200,2081.5C 2159.83,2120.33 2120.33,2159.83 2081.5,2200C 2000.49,2278.33 1909.49,2342.66 1808.5,2393C 1689.7,2450.87 1564.36,2483.03 1432.5,2489.5C 1405.83,2489.5 1379.17,2489.5 1352.5,2489.5C 1232.12,2484.16 1117.12,2456.32 1007.5,2406C 965.604,2386.15 926.104,2362.65 889,2335.5C 888.544,2334.26 889.044,2333.42 890.5,2333C 953.546,2313.82 1016.55,2294.49 1079.5,2275C 902.628,2247.17 754.128,2167.67 634,2036.5C 587.525,1982.93 549.025,1923.93 518.5,1859.5C 518.833,1859.17 519.167,1858.83 519.5,1858.5C 584.097,1868.04 648.763,1876.87 713.5,1885C 655.75,1860.65 603.417,1827.98 556.5,1787C 457.986,1699.23 389.82,1591.73 352,1464.5C 336.676,1412.21 325.843,1359.05 319.5,1305C 379.882,1315.08 440.215,1325.41 500.5,1336C 457.848,1303.69 419.348,1266.85 385,1225.5C 262.898,1076.49 195.565,905.156 183,711.5C 181.302,688.508 180.802,665.508 181.5,642.5C 226.854,666.341 272.188,689.841 317.5,713C 282.088,669.357 250.255,623.19 222,574.5C 159.753,464.332 108.086,349.332 67,229.5C 41.525,155.254 19.025,80.2543 -0.5,4.5C -0.5,2.83333 -0.5,1.16667 -0.5,-0.5 Z"></path>
  </g>
</svg>
