<?xml version="1.0" encoding="UTF-8"?>
<svg xmlns="http://www.w3.org/2000/svg" xmlns:xlink="http://www.w3.org/1999/xlink" version="1.1" width="2336px" height="2336px" style="shape-rendering:geometricPrecision; text-rendering:geometricPrecision; image-rendering:optimizeQuality; fill-rule:evenodd; clip-rule:evenodd">
  <g>
    <path style="opacity:0.999" fill="#000000" d="M -0.5,-0.5 C 2.5,-0.5 5.5,-0.5 8.5,-0.5C 265.172,33.8684 518.339,85.8684 768,155.5C 768.5,155.167 769,154.833 769.5,154.5C 760.206,111.532 751.873,68.365 744.5,25C 744.833,24.1667 745.167,23.3333 745.5,22.5C 1037.71,98.9661 1308.04,221.799 1556.5,391C 1631.89,443.476 1703.72,500.643 1772,562.5C 1781.72,532.821 1790.56,502.821 1798.5,472.5C 1798.73,471.068 1799.4,470.568 1800.5,471C 1933.28,570.778 2048.11,687.944 2145,822.5C 2206.1,907.673 2254.43,1000.01 2290,1099.5C 2315.39,1173.26 2330.55,1248.93 2335.5,1326.5C 2335.5,1350.17 2335.5,1373.83 2335.5,1397.5C 2328.67,1495.85 2304.5,1589.85 2263,1679.5C 2214.84,1781.94 2152.17,1874.27 2075,1956.5C 2034.83,1995.33 1995.33,2034.83 1956.5,2075C 1871.12,2154.73 1775.12,2219.06 1668.5,2268C 1582.09,2306.68 1491.76,2329.18 1397.5,2335.5C 1373.83,2335.5 1350.17,2335.5 1326.5,2335.5C 1213.56,2327.85 1105.9,2299.68 1003.5,2251C 898.267,2199.76 801.601,2136.09 713.5,2060C 623.099,1981.95 542.266,1895.45 471,1800.5C 470.568,1799.4 471.068,1798.73 472.5,1798.5C 502.821,1790.56 532.821,1781.72 562.5,1772C 457.792,1656.3 366.625,1530.8 289,1395.5C 171.175,1190.89 82.3412,974.224 22.5,745.5C 23.3333,745.167 24.1667,744.833 25,744.5C 68.365,751.873 111.532,760.206 154.5,769.5C 154.833,769 155.167,768.5 155.5,768C 85.8684,518.339 33.8684,265.172 -0.5,8.5C -0.5,5.5 -0.5,2.5 -0.5,-0.5 Z"></path>
  </g>
</svg>
