<?xml version="1.0" encoding="UTF-8"?>
<svg xmlns="http://www.w3.org/2000/svg" xmlns:xlink="http://www.w3.org/1999/xlink" version="1.1" width="2282px" height="2282px" style="shape-rendering:geometricPrecision; text-rendering:geometricPrecision; image-rendering:optimizeQuality; fill-rule:evenodd; clip-rule:evenodd">
  <g>
    <path style="opacity:0.999" fill="#000000" d="M -0.5,-0.5 C 3.16667,-0.5 6.83333,-0.5 10.5,-0.5C 124.975,12.1997 236.641,37.6997 345.5,76C 380.698,88.7897 415.031,103.623 448.5,120.5C 449.499,105.848 449.833,91.1818 449.5,76.5C 583.865,112.565 714.865,158.065 842.5,213C 894.334,235.908 943.668,262.908 990.5,294C 1011.84,308.674 1030.68,326.174 1047,346.5C 1052.13,322.528 1057.13,298.528 1062,274.5C 1062.12,271.992 1063.12,269.992 1065,268.5C 1186.55,326.84 1304.05,391.674 1417.5,463C 1467.41,494.911 1515.08,529.911 1560.5,568C 1576.57,582.611 1592.07,597.778 1607,613.5C 1621.34,629.18 1633.34,646.513 1643,665.5C 1645.61,671.725 1647.94,678.058 1650,684.5C 1667,660.005 1684.17,635.671 1701.5,611.5C 1781.08,685.887 1853.91,765.887 1920,851.5C 1954.61,896.14 1985.27,943.474 2012,993.5C 2029.5,1026.68 2041.84,1061.68 2049,1098.5C 2051.14,1113.46 2051.81,1128.46 2051,1143.5C 2075.33,1119.17 2099.67,1094.83 2124,1070.5C 2162.22,1129.28 2193.89,1191.61 2219,1257.5C 2254.61,1349.05 2275.44,1443.72 2281.5,1541.5C 2281.5,1565.17 2281.5,1588.83 2281.5,1612.5C 2272.91,1763.28 2220.74,1896.61 2125,2012.5C 2066.58,2082.62 1998.74,2141.45 1921.5,2189C 1825.94,2244.81 1722.94,2275.64 1612.5,2281.5C 1588.83,2281.5 1565.17,2281.5 1541.5,2281.5C 1421.51,2273.67 1306.84,2244.5 1197.5,2194C 1153.11,2173.98 1110.78,2150.65 1070.5,2124C 1094.83,2099.67 1119.17,2075.33 1143.5,2051C 1110.82,2052.61 1079.16,2047.61 1048.5,2036C 1005.54,2019.19 964.876,1998.19 926.5,1973C 877.184,1940.02 829.85,1904.36 784.5,1866C 723.879,1814.55 666.212,1759.72 611.5,1701.5C 635.671,1684.17 660.005,1667 684.5,1650C 671.268,1646.22 658.935,1640.55 647.5,1633C 627.203,1619.05 608.369,1603.21 591,1585.5C 563.757,1556.31 538.424,1525.64 515,1493.5C 458.322,1413.52 406.656,1330.19 360,1243.5C 328.073,1184.81 297.573,1125.31 268.5,1065C 269.992,1063.12 271.992,1062.12 274.5,1062C 298.528,1057.13 322.528,1052.13 346.5,1047C 326.174,1030.68 308.674,1011.84 294,990.5C 262.908,943.668 235.908,894.334 213,842.5C 158.065,714.865 112.565,583.865 76.5,449.5C 91.1818,449.833 105.848,449.499 120.5,448.5C 80.1026,365.478 49.9359,278.811 30,188.5C 16.6779,129.563 6.51123,70.2302 -0.5,10.5C -0.5,6.83333 -0.5,3.16667 -0.5,-0.5 Z"></path>
  </g>
</svg>
