<?xml version="1.0" encoding="UTF-8"?>
<svg xmlns="http://www.w3.org/2000/svg" xmlns:xlink="http://www.w3.org/1999/xlink" version="1.1" width="2302px" height="2302px" style="shape-rendering:geometricPrecision; text-rendering:geometricPrecision; image-rendering:optimizeQuality; fill-rule:evenodd; clip-rule:evenodd">
  <g>
    <path style="opacity:0.998" fill="#000000" d="M 549.5,-0.5 C 558.167,-0.5 566.833,-0.5 575.5,-0.5C 598.476,4.98644 619.476,14.8198 638.5,29C 671.038,54.5376 699.871,83.7042 725,116.5C 758.751,161.638 788.751,209.304 815,259.5C 817.93,221.181 825.597,183.848 838,147.5C 846.803,122.028 860.97,100.194 880.5,82C 902.932,66.036 926.932,63.3693 952.5,74C 974.503,84.6587 993.669,99.1587 1010,117.5C 1036.3,148.076 1058.63,181.409 1077,217.5C 1110.5,284.666 1136.5,354.666 1155,427.5C 1156,428.167 1157,428.833 1158,429.5C 1168.82,387.703 1182.82,347.036 1200,307.5C 1212.73,279.002 1228.73,252.669 1248,228.5C 1256.9,218.932 1266.4,210.099 1276.5,202C 1314.02,178.224 1348.19,182.391 1379,214.5C 1404.05,244.919 1422.05,279.252 1433,317.5C 1449.37,372.37 1459.71,428.37 1464,485.5C 1465.84,510.139 1467.17,534.805 1468,559.5C 1494.28,511.122 1526.78,467.288 1565.5,428C 1579.59,414.785 1595.26,403.785 1612.5,395C 1662.47,374.544 1698.97,388.71 1722,437.5C 1737.61,475.238 1745.95,514.571 1747,555.5C 1749.39,615.973 1745.22,675.973 1734.5,735.5C 1735.83,736.5 1737.17,737.5 1738.5,738.5C 1768.59,703.569 1802.26,672.735 1839.5,646C 1859.21,632.478 1880.54,622.145 1903.5,615C 1963.69,601.683 2001.85,624.849 2018,684.5C 2027.15,725.505 2028.82,766.838 2023,808.5C 2015.25,869.16 2000.75,928.16 1979.5,985.5C 1979.67,985.833 1979.83,986.167 1980,986.5C 2011.48,964.005 2045.31,945.505 2081.5,931C 2102.73,922.692 2124.73,918.192 2147.5,917.5C 2187.87,917.247 2215.04,935.914 2229,973.5C 2235.83,997.76 2237.83,1022.43 2235,1047.5C 2230.92,1083.51 2222.58,1118.51 2210,1152.5C 2188.59,1209.49 2161.75,1263.66 2129.5,1315C 2142.04,1310.37 2154.71,1305.7 2167.5,1301C 2187.04,1294.78 2207.04,1292.11 2227.5,1293C 2260.02,1295.82 2282.19,1312.32 2294,1342.5C 2297.35,1352.42 2299.85,1362.42 2301.5,1372.5C 2301.5,1387.5 2301.5,1402.5 2301.5,1417.5C 2296.22,1458.27 2286.06,1497.94 2271,1536.5C 2240.27,1613.32 2201.27,1685.32 2154,1752.5C 2123.5,1795.8 2090.84,1837.47 2056,1877.5C 2032.37,1903.47 2008.37,1929.13 1984,1954.5C 1940.34,1998.5 1895.17,2040.67 1848.5,2081C 1777.18,2140.52 1700.18,2191.85 1617.5,2235C 1573.89,2257.31 1528.56,2275.31 1481.5,2289C 1460.31,2294.67 1438.98,2298.84 1417.5,2301.5C 1402.5,2301.5 1387.5,2301.5 1372.5,2301.5C 1313.17,2293.3 1287,2259.3 1294,2199.5C 1295.15,2191.06 1296.82,2182.73 1299,2174.5C 1303.78,2159.16 1309.11,2144.16 1315,2129.5C 1263.66,2161.75 1209.49,2188.59 1152.5,2210C 1110.89,2225.65 1067.89,2234.49 1023.5,2236.5C 1000.3,2236.91 978.302,2232.08 957.5,2222C 930.196,2204.9 916.863,2180.07 917.5,2147.5C 919.045,2116.65 926.545,2087.32 940,2059.5C 953.506,2031.7 969.006,2005.2 986.5,1980C 946.611,1993.74 905.944,2005.07 864.5,2014C 815.65,2024.93 766.317,2028.26 716.5,2024C 687.44,2021.43 661.106,2011.76 637.5,1995C 613.453,1972 605.286,1944.17 613,1911.5C 619.691,1885.46 630.691,1861.46 646,1839.5C 672.735,1802.26 703.569,1768.59 738.5,1738.5C 737.52,1737.02 736.353,1735.69 735,1734.5C 661.613,1748.33 587.78,1751.16 513.5,1743C 481.974,1739.37 452.307,1730.04 424.5,1715C 385.258,1689.56 375.425,1655.39 395,1612.5C 408.017,1588.13 424.85,1566.63 445.5,1548C 480.349,1516.9 518.349,1490.24 559.5,1468C 494.106,1466.96 429.44,1459.62 365.5,1446C 322.132,1436.77 281.132,1421.44 242.5,1400C 224.412,1388.91 209.245,1374.74 197,1357.5C 181.833,1329.5 183.5,1302.5 202,1276.5C 218.242,1255.49 237.742,1238.32 260.5,1225C 312.62,1195.18 367.953,1173.18 426.5,1159C 428.592,1158.05 428.925,1156.71 427.5,1155C 354.666,1136.5 284.666,1110.5 217.5,1077C 181.409,1058.63 148.076,1036.3 117.5,1010C 99.1587,993.669 84.6587,974.503 74,952.5C 61.9379,922.236 67.1046,895.402 89.5,872C 106.629,857.095 125.962,845.762 147.5,838C 183.583,825.883 220.583,818.05 258.5,814.5C 193.446,781.243 133.446,740.743 78.5,693C 60.153,676.329 43.653,658.162 29,638.5C 14.8198,619.476 4.98644,598.476 -0.5,575.5C -0.5,566.833 -0.5,558.167 -0.5,549.5C 3.42411,532.844 12.0908,519.01 25.5,508C 47.8298,492.775 72.4964,483.441 99.5,480C 127.366,475.942 155.366,474.609 183.5,476C 202.217,477.116 220.883,478.449 239.5,480C 170.74,412.869 112.24,338.035 64,255.5C 40.9214,216.177 24.0881,174.343 13.5,130C 8.96424,108.91 8.46424,87.7438 12,66.5C 19.5875,34.9136 39.4209,16.4136 71.5,11C 97.6264,8.05068 123.293,10.384 148.5,18C 197.809,33.4899 244.142,55.1565 287.5,83C 357.26,127.861 421.427,180.028 480,239.5C 478.449,220.883 477.116,202.217 476,183.5C 473.573,144.556 477.24,106.223 487,68.5C 493.355,44.9333 505.855,25.4333 524.5,10C 532.318,5.01305 540.651,1.51305 549.5,-0.5 Z"></path>
  </g>
</svg>
