<?xml version="1.0" encoding="UTF-8"?>
<svg xmlns="http://www.w3.org/2000/svg" xmlns:xlink="http://www.w3.org/1999/xlink" version="1.1" width="2076px" height="2076px" style="shape-rendering:geometricPrecision; text-rendering:geometricPrecision; image-rendering:optimizeQuality; fill-rule:evenodd; clip-rule:evenodd">
  <g>
    <path style="opacity:0.998" fill="#000000" d="M 0.5,-0.5 C 1.5,-0.5 2.5,-0.5 3.5,-0.5C 44.7896,5.75305 85.123,16.253 124.5,31C 209.596,63.5486 291.596,102.549 370.5,148C 501.804,224.128 628.137,307.461 749.5,398C 787.618,426.45 825.451,455.283 863,484.5C 864.604,472.571 864.937,460.571 864,448.5C 857.175,384.22 846.675,320.553 832.5,257.5C 833.365,256.417 834.365,256.251 835.5,257C 979.155,330.96 1106.32,427.126 1217,545.5C 1308.89,644.616 1387.56,753.283 1453,871.5C 1467.13,898.099 1480.47,925.099 1493,952.5C 1491.54,914.756 1492.87,877.089 1497,839.5C 1501.36,798.983 1507.03,758.65 1514,718.5C 1514.72,717.549 1515.55,717.383 1516.5,718C 1608.01,807.112 1686.17,906.279 1751,1015.5C 1809.23,1114.31 1849.89,1219.97 1873,1332.5C 1878.93,1364.91 1882.6,1397.58 1884,1430.5C 1894.53,1415.62 1903.86,1399.95 1912,1383.5C 1929.15,1348.86 1945.99,1314.19 1962.5,1279.5C 2006.71,1383.64 2039.54,1491.31 2061,1602.5C 2068.15,1642.37 2072.98,1682.37 2075.5,1722.5C 2075.5,1746.17 2075.5,1769.83 2075.5,1793.5C 2073.14,1844.78 2062.64,1894.45 2044,1942.5C 2034.79,1964.61 2022.79,1984.95 2008,2003.5C 1983.5,2024.84 1955.67,2040.68 1924.5,2051C 1881.79,2065 1838.12,2073.17 1793.5,2075.5C 1769.83,2075.5 1746.17,2075.5 1722.5,2075.5C 1626.48,2068.6 1532.48,2050.43 1440.5,2021C 1385.88,2003.96 1332.21,1984.46 1279.5,1962.5C 1314.19,1945.99 1348.86,1929.15 1383.5,1912C 1399.95,1903.86 1415.62,1894.53 1430.5,1884C 1348.29,1879.53 1268.62,1862.86 1191.5,1834C 1078.11,1790.83 973.78,1732.5 878.5,1659C 822.027,1615.21 768.527,1567.71 718,1516.5C 717.383,1515.55 717.549,1514.72 718.5,1514C 775.437,1503.72 832.77,1496.72 890.5,1493C 911.19,1492.42 931.857,1492.42 952.5,1493C 752.791,1398.7 580.291,1268.2 435,1101.5C 365.253,1020.07 305.92,931.401 257,835.5C 256.251,834.365 256.417,833.365 257.5,832.5C 320.553,846.675 384.22,857.175 448.5,864C 460.571,864.937 472.571,864.604 484.5,863C 390.315,743.139 302.148,618.972 220,490.5C 168.438,409.408 121.438,325.408 79,238.5C 49.2172,177.489 25.5505,114.155 8,48.5C 4.71562,33.442 1.88228,18.442 -0.5,3.5C -0.5,2.5 -0.5,1.5 -0.5,0.5C 0.166667,0.5 0.5,0.166667 0.5,-0.5 Z"></path>
  </g>
</svg>
