<?xml version="1.0" encoding="UTF-8"?>
<svg xmlns="http://www.w3.org/2000/svg" xmlns:xlink="http://www.w3.org/1999/xlink" version="1.1" width="2367px" height="2367px" style="shape-rendering:geometricPrecision; text-rendering:geometricPrecision; image-rendering:optimizeQuality; fill-rule:evenodd; clip-rule:evenodd">
  <g>
    <path style="opacity:0.999" fill="#000000" d="M -0.5,-0.5 C 1.16667,-0.5 2.83333,-0.5 4.5,-0.5C 116.961,27.1073 228.628,57.1073 339.5,89.5C 332.385,66.0041 326.218,42.3375 321,18.5C 566.2,80.4369 791.7,183.77 997.5,328.5C 997.833,328 998.167,327.5 998.5,327C 990.735,305.204 983.068,283.371 975.5,261.5C 976,261.167 976.5,260.833 977,260.5C 1161.91,337.802 1332.08,438.302 1487.5,562C 1511.93,582.424 1535.76,603.591 1559,625.5C 1552.78,597.331 1545.62,569.331 1537.5,541.5C 1537.83,541.167 1538.17,540.833 1538.5,540.5C 1668.21,616.317 1783.71,710.317 1885,822.5C 1937,881.173 1982,944.839 2020,1013.5C 2027.55,1027.92 2034.55,1042.59 2041,1057.5C 2044.67,1028.8 2048.5,1000.14 2052.5,971.5C 2158.62,1102.06 2233.45,1249.4 2277,1413.5C 2286.22,1449.59 2293.88,1485.93 2300,1522.5C 2307.73,1504.71 2315.73,1487.05 2324,1469.5C 2324.67,1468.17 2325.33,1468.17 2326,1469.5C 2348.57,1539.6 2362.07,1611.27 2366.5,1684.5C 2366.5,1710.17 2366.5,1735.83 2366.5,1761.5C 2358.13,1902.52 2313.29,2030.52 2232,2145.5C 2199.41,2189.77 2159.57,2225.93 2112.5,2254C 2005.33,2321.88 1888.33,2359.38 1761.5,2366.5C 1735.83,2366.5 1710.17,2366.5 1684.5,2366.5C 1611.27,2362.07 1539.6,2348.57 1469.5,2326C 1468.17,2325.33 1468.17,2324.67 1469.5,2324C 1487.05,2315.73 1504.71,2307.73 1522.5,2300C 1326.8,2266.95 1150.47,2190.62 993.5,2071C 985.995,2064.99 978.662,2058.83 971.5,2052.5C 1000.14,2048.5 1028.8,2044.67 1057.5,2041C 1020.81,2024.82 985.806,2005.82 952.5,1984C 859.305,1922.18 775.805,1848.68 702,1763.5C 641.382,1693.38 587.549,1618.38 540.5,1538.5C 566.136,1544.16 591.803,1550.66 617.5,1558C 620.126,1558.99 622.793,1559.33 625.5,1559C 572.561,1502.22 524.061,1442.05 480,1378.5C 393.347,1252.74 320.181,1118.91 260.5,977C 260.833,976.5 261.167,976 261.5,975.5C 283.371,983.068 305.204,990.735 327,998.5C 327.5,998.167 328,997.833 328.5,997.5C 183.77,791.7 80.4369,566.2 18.5,321C 42.3375,326.218 66.0041,332.385 89.5,339.5C 57.1073,228.628 27.1073,116.961 -0.5,4.5C -0.5,2.83333 -0.5,1.16667 -0.5,-0.5 Z"></path>
  </g>
</svg>
