<?xml version="1.0" encoding="UTF-8"?>
<svg xmlns="http://www.w3.org/2000/svg" xmlns:xlink="http://www.w3.org/1999/xlink" version="1.1" width="2454px" height="2454px" style="shape-rendering:geometricPrecision; text-rendering:geometricPrecision; image-rendering:optimizeQuality; fill-rule:evenodd; clip-rule:evenodd">
  <g>
    <path style="opacity:0.999" fill="#000000" d="M -0.5,-0.5 C 16.5,-0.5 33.5,-0.5 50.5,-0.5C 262.672,7.10475 472.672,33.2714 680.5,78C 817.879,107.794 950.879,150.794 1079.5,207C 1115.95,223.476 1151.45,241.643 1186,261.5C 1163.07,228.369 1141.07,194.369 1120,159.5C 1107.59,138.683 1097.92,116.683 1091,93.5C 1084.35,67.1547 1094.18,56.988 1120.5,63C 1129.37,65.401 1138.04,68.401 1146.5,72C 1184.82,91.4845 1221.49,113.485 1256.5,138C 1349.41,204.559 1439.74,274.559 1527.5,348C 1638.18,440.67 1747.68,534.837 1856,630.5C 1856.23,605.019 1858.23,579.686 1862,554.5C 1864.18,538.618 1869.51,523.951 1878,510.5C 1884.4,502.699 1892.57,499.866 1902.5,502C 1913.96,506.48 1923.79,513.313 1932,522.5C 1955.31,551.106 1975.65,581.773 1993,614.5C 2032.15,690.133 2067.48,767.466 2099,846.5C 2133.39,932.281 2166.39,1018.61 2198,1105.5C 2220.48,1169.28 2243.15,1232.94 2266,1296.5C 2298.18,1247.83 2333.51,1201.5 2372,1157.5C 2385.77,1142.56 2400.93,1129.4 2417.5,1118C 2436.7,1107.22 2448.7,1112.38 2453.5,1133.5C 2453.5,1146.83 2453.5,1160.17 2453.5,1173.5C 2446.82,1219.37 2436.99,1264.7 2424,1309.5C 2402.55,1384.19 2378.88,1458.19 2353,1531.5C 2326.36,1597.78 2295.69,1662.11 2261,1724.5C 2210.02,1817.1 2152.35,1905.1 2088,1988.5C 2058.83,2025.67 2025.67,2058.83 1988.5,2088C 1850.79,2194.41 1701.12,2281.74 1539.5,2350C 1446.19,2383.77 1351.52,2413.1 1255.5,2438C 1228.28,2444.55 1200.95,2449.71 1173.5,2453.5C 1160.17,2453.5 1146.83,2453.5 1133.5,2453.5C 1112.38,2448.7 1107.22,2436.7 1118,2417.5C 1129.4,2400.93 1142.56,2385.77 1157.5,2372C 1201.5,2333.51 1247.83,2298.18 1296.5,2266C 1191.15,2228.99 1086.15,2190.99 981.5,2152C 878.559,2113.53 777.226,2071.2 677.5,2025C 629.394,2002.79 583.727,1976.79 540.5,1947C 530.012,1938.51 520.179,1929.34 511,1919.5C 494.226,1895.49 499.726,1878.65 527.5,1869C 546.693,1862.86 566.359,1859.19 586.5,1858C 601.157,1857.13 615.824,1856.46 630.5,1856C 502.956,1712.14 378.789,1565.64 258,1416.5C 216.54,1364.24 176.54,1310.91 138,1256.5C 113.485,1221.49 91.4845,1184.82 72,1146.5C 67.2649,1136.63 63.9316,1126.29 62,1115.5C 61.1392,1109.41 61.4725,1103.41 63,1097.5C 65.0875,1093.7 68.2541,1091.2 72.5,1090C 79.5564,1089.21 86.5564,1089.55 93.5,1091C 116.683,1097.92 138.683,1107.59 159.5,1120C 194.369,1141.07 228.369,1163.07 261.5,1186C 208.75,1091.32 166.25,992.155 134,888.5C 90.7809,749.742 58.7809,608.409 38,464.5C 17.6706,327.04 4.83727,189.04 -0.5,50.5C -0.5,33.5 -0.5,16.5 -0.5,-0.5 Z"></path>
  </g>
</svg>
